# File created by Blade
# Date/Time:  Tue Sep 30 19:33:40 2014
#---------------------------------------------------------
:version 1.10
:name HOM
:units
  mass 1.0
  length 1.000000
  angle deg
:documentation
     Acclaim Skeleton File
:root
   axis xyz
   order TX TY TZ RX RY RZ
   position 0.000000 0.000000 0.000000
   orientation 0 0 0
:bonedata
   begin
      id 1
      name Spine_dum
      direction 0.000000 1.000000 0.000000
      length 3.241213
      axis 0.0 0.0 0.0 xyz
   end
   begin
      id 2
      name LeftUpLeg_dum
      direction 1.000000 0.000000 0.000000
      length 3.434019
      axis 0.0 0.0 0.0 xyz
   end
   begin
      id 3
      name RightUpLeg_dum
      direction -1.000000 0.000000 0.000000
      length 3.434019
      axis 0.0 0.0 0.0 xyz
   end
   begin
      id 4
      name Spine
      direction 0.000000 1.000000 0.000000
      length 0.000000
      axis 0.0 0.0 0.0 xyz
      dof rx ry rz
   end
   begin
      id 5
      name Spine_dum1
      direction 0.000000 1.000000 0.000000
      length 18.382958
      axis 0.0 0.0 0.0 xyz
   end
   begin
      id 6
      name Spine_dum2
      direction 0.000000 1.000000 0.000000
      length 12.828261
      axis 0.0 0.0 0.0 xyz
   end
   begin
      id 7
      name Spine_dum3
      direction 0.000000 1.000000 0.000000
      length 12.828261
      axis 0.0 0.0 0.0 xyz
   end
   begin
      id 8
      name Head
      direction 0.000000 1.000000 0.000000
      length 4.527550
      axis 0.0 0.0 0.0 xyz
      dof rx ry rz
   end
   begin
      id 9
      name LeftShoulder
      direction 1.000000 0.000000 0.000000
      length 7.748055
      axis 0.0 0.0 -90.0 xyz
      dof rx ry rz
   end
   begin
      id 10
      name LeftArm
      direction 1.000000 0.000000 0.000000
      length 10.635614
      axis 0.0 0.0 -90.0 xyz
      dof rx ry rz
   end
   begin
      id 11
      name LeftForeArm
      direction 1.000000 0.000000 0.000000
      length 8.346755
      axis 0.0 0.0 -90.0 xyz
      dof ry rz rx
   end
   begin
      id 12
      name LeftHand
      direction 0.000000 0.000000 0.000000
      length 0.000000
      axis 0.0 0.0 -90.0 xyz
      dof rx ry rz
   end
   begin
      id 13
      name LeftHand_dum1
      direction 0.000000 0.000000 0.000000
      length 0.000000
      axis 0.0 0.0 -90.0 xyz
   end
   begin
      id 14
      name LeftHand_dum2
      direction 1.000000 0.000000 0.000000
      length 3.937000
      axis 0.0 0.0 -90.0 xyz
   end
   begin
      id 15
      name LeftHandThumb1
      direction 0.000000 0.000000 1.000000
      length 3.937000
      axis 0.0 0.0 -90.0 xyz
      dof rx rz ry
   end
   begin
      id 16
      name RightShoulder
      direction -1.000000 0.000000 0.000000
      length 7.748055
      axis 0.0 0.0 90.0 xyz
      dof rx ry rz
   end
   begin
      id 17
      name RightArm
      direction -1.000000 0.000000 0.000000
      length 10.635614
      axis 0.0 0.0 90.0 xyz
      dof rx ry rz
   end
   begin
      id 18
      name RightForeArm
      direction -1.000000 0.000000 0.000000
      length 8.346755
      axis 0.0 0.0 90.0 xyz
      dof ry rz rx
   end
   begin
      id 19
      name RightHand
      direction 0.000000 0.000000 0.000000
      length 0.000000
      axis 0.0 0.0 90.0 xyz
      dof rx ry rz
   end
   begin
      id 20
      name RightHand_dum1
      direction 0.000000 0.000000 0.000000
      length 0.000000
      axis 0.0 0.0 90.0 xyz
   end
   begin
      id 21
      name RightHand_dum2
      direction -1.000000 0.000000 0.000000
      length 3.937000
      axis 0.0 0.0 90.0 xyz
   end
   begin
      id 22
      name RightHandThumb1
      direction 0.000000 0.000000 1.000000
      length 3.937000
      axis 0.0 0.0 90.0 xyz
      dof rx rz ry
   end
   begin
      id 23
      name LeftUpLeg
      direction 0.000000 -1.000000 0.000000
      length 15.713025
      axis 0.0 0.0 0.0 xyz
      dof rx ry rz
   end
   begin
      id 24
      name LeftLeg
      direction 0.000000 -1.000000 0.000000
      length 14.435119
      axis 0.0 0.0 0.0 xyz
      dof rx ry rz
   end
   begin
      id 25
      name LeftFoot
      direction 0.000000 -0.258819 0.965926
      length 4.938895
      axis 15.0 0.0 0.0 xyz
      dof rx ry rz
   end
   begin
      id 26
      name LeftToeBase
      direction 0.000000 0.000000 1.000000
      length 2.952750
      axis 0.0 0.0 0.0 xyz
      dof rx ry rz
   end
   begin
      id 27
      name RightUpLeg
      direction 0.000000 -1.000000 0.000000
      length 15.713025
      axis 0.0 0.0 0.0 xyz
      dof rx ry rz
   end
   begin
      id 28
      name RightLeg
      direction 0.000000 -1.000000 0.000000
      length 14.435119
      axis 0.0 0.0 0.0 xyz
      dof rx ry rz
   end
   begin
      id 29
      name RightFoot
      direction 0.000000 -0.258819 0.965926
      length 4.938895
      axis 15.0 0.0 0.0 xyz
      dof rx ry rz
   end
   begin
      id 30
      name RightToeBase
      direction 0.000000 0.000000 1.000000
      length 2.952750
      axis 0.0 0.0 0.0 xyz
      dof rx ry rz
   end
:hierarchy
   begin
      root Spine_dum LeftUpLeg_dum RightUpLeg_dum
      Spine_dum Spine
      LeftUpLeg_dum LeftUpLeg
      RightUpLeg_dum RightUpLeg
      Spine Spine_dum1 Spine_dum2 Spine_dum3
      Spine_dum1 Head
      Spine_dum2 LeftShoulder
      Spine_dum3 RightShoulder
      LeftShoulder LeftArm
      LeftArm LeftForeArm
      LeftForeArm LeftHand
      LeftHand LeftHand_dum1 LeftHand_dum2
      LeftHand_dum1 LeftHandThumb1
      RightShoulder RightArm
      RightArm RightForeArm
      RightForeArm RightHand
      RightHand RightHand_dum1 RightHand_dum2
      RightHand_dum1 RightHandThumb1
      LeftUpLeg LeftLeg
      LeftLeg LeftFoot
      LeftFoot LeftToeBase
      RightUpLeg RightLeg
      RightLeg RightFoot
      RightFoot RightToeBase
   end

# File created by Blade
# Date/Time:  Mon Sep 22 21:09:19 2014
# Frame Rate: 120.000 fps
#------------------------------------------------------
:FULLY-SPECIFIED
:DEGREES
678
root -2.302689 32.180968 -4.041367 17.836026 62.017355 -9.486860
Spine -28.487670 -5.983544 5.419841
Head 3.048434 0.577877 -3.561053
LeftShoulder -5.554108 44.095089 19.131657
LeftArm 81.796254 29.146836 -36.913930
LeftForeArm -22.181570 -0.000000 91.228228
LeftHand -32.205795 0.000000 6.090753
LeftHandThumb1 -26.253704 0.000000 33.147579
RightShoulder -1.014266 -46.728666 -22.122439
RightArm 74.964299 -17.659435 36.286028
RightForeArm 74.728906 -0.000000 67.207005
RightHand -8.692995 0.000000 31.985075
RightHandThumb1 -24.326973 -0.000000 -32.862282
LeftUpLeg -36.284362 -2.752440 0.812344
LeftLeg 20.704575 -0.000000 -0.000000
LeftFoot -11.899464 5.702056 9.750017
LeftToeBase -0.947384 -0.000000 0.000000
RightUpLeg -157.405369 20.215359 11.182962
RightLeg 98.679027 -0.000000 -0.000000
RightFoot 42.182994 -14.412817 28.744520
RightToeBase 43.906576 -0.000000 -0.000000
679
root -2.289652 32.181160 -4.033838 17.745713 61.656251 -9.597629
Spine -28.477353 -5.647291 5.445683
Head 3.079692 0.683980 -3.376494
LeftShoulder -5.635346 44.172100 19.081714
LeftArm 81.681100 29.145864 -36.986814
LeftForeArm -22.345814 -0.000000 91.127895
LeftHand -31.954735 -0.000000 5.925360
LeftHandThumb1 -26.253704 0.000000 33.147579
RightShoulder -1.059319 -46.785416 -22.058525
RightArm 74.964340 -17.682166 36.426384
RightForeArm 74.429369 0.000000 67.286106
RightHand -9.157584 -0.000000 31.852160
RightHandThumb1 -24.326973 -0.000000 -32.862282
LeftUpLeg -36.206289 -2.897134 0.971863
LeftLeg 20.674134 -0.000000 -0.000000
LeftFoot -11.751718 6.369747 10.289180
LeftToeBase -1.300502 -0.000000 0.000000
RightUpLeg -157.221407 20.165441 10.976832
RightLeg 98.781771 -0.000000 -0.000000
RightFoot 42.196494 -14.498813 28.327330
RightToeBase 43.983679 -0.000000 -0.000000
680
root -2.277593 32.185347 -4.021130 17.562117 61.324993 -9.813199
Spine -28.480198 -5.329369 5.518600
Head 3.133537 0.730912 -3.179469
LeftShoulder -5.739627 44.269128 19.015939
LeftArm 81.613973 29.122251 -37.031244
LeftForeArm -22.504141 -0.000000 90.989745
LeftHand -31.650950 -0.000000 5.640140
LeftHandThumb1 -26.253704 0.000000 33.147579
RightShoulder -1.076073 -46.868623 -21.987829
RightArm 74.923613 -17.675045 36.629823
RightForeArm 74.076413 -0.000000 67.415666
RightHand -9.652323 -0.000000 31.666286
RightHandThumb1 -24.326973 -0.000000 -32.862282
LeftUpLeg -36.146964 -2.916407 1.140567
LeftLeg 20.705381 -0.000000 -0.000000
LeftFoot -11.751340 6.816913 10.607405
LeftToeBase -1.276422 -0.000000 0.000000
RightUpLeg -157.038799 20.078808 10.805722
RightLeg 98.887089 -0.000000 -0.000000
RightFoot 42.246346 -14.626354 27.615217
RightToeBase 44.083497 -0.000000 -0.000000
681
root -2.268522 32.195035 -4.002458 17.286423 60.991716 -10.139895
Spine -28.501455 -5.009457 5.641008
Head 3.243613 0.775900 -2.970316
LeftShoulder -5.825882 44.319001 18.944771
LeftArm 81.492740 29.125194 -37.083749
LeftForeArm -22.683037 0.000000 90.871902
LeftHand -31.390634 -0.000000 5.564562
LeftHandThumb1 -26.253704 0.000000 33.147579
RightShoulder -1.206658 -47.026880 -21.808793
RightArm 75.058394 -17.596371 36.673017
RightForeArm 73.791155 -0.000000 67.429722
RightHand -10.113209 -0.000000 31.572640
RightHandThumb1 -24.326973 -0.000000 -32.862282
LeftUpLeg -36.110662 -2.850309 1.354064
LeftLeg 20.762845 -0.000000 -0.000000
LeftFoot -11.739876 7.139053 10.784667
LeftToeBase -1.360264 -0.000000 0.000000
RightUpLeg -156.852814 19.962880 10.640938
RightLeg 98.988152 -0.000000 -0.000000
RightFoot 42.355231 -14.845144 26.767966
RightToeBase 44.264145 -0.000000 -0.000000
682
root -2.260994 32.208100 -3.982508 16.944912 60.728370 -10.547795
Spine -28.534937 -4.761876 5.817213
Head 3.376789 0.805246 -2.699941
LeftShoulder -5.930209 44.364718 18.880779
LeftArm 81.422540 29.138133 -37.120498
LeftForeArm -22.919385 -0.000000 90.719676
LeftHand -31.275411 -0.000000 5.302977
LeftHandThumb1 -26.253704 0.000000 33.147579
RightShoulder -1.338089 -46.996582 -21.633023
RightArm 75.095290 -17.631081 36.802756
RightForeArm 73.415872 -0.000000 67.404279
RightHand -10.465659 -0.000000 31.501723
RightHandThumb1 -24.326973 -0.000000 -32.862282
LeftUpLeg -36.087507 -2.749676 1.590354
LeftLeg 20.827351 -0.000000 -0.000000
LeftFoot -11.729335 7.384784 11.079475
LeftToeBase -1.423272 -0.000000 0.000000
RightUpLeg -156.689798 19.766552 10.495283
RightLeg 99.104831 -0.000000 -0.000000
RightFoot 42.362482 -15.157890 25.854474
RightToeBase 44.543201 -0.000000 -0.000000
